<svg width="358" height="91" viewBox="0 0 358 91" fill="none" xmlns="http://www.w3.org/2000/svg">
<path d="M64.0581 39.8053C66.2869 39.8053 68.0936 41.6119 68.0936 43.8421C68.0936 46.0709 66.2869 47.8776 64.0581 47.8776C61.8279 47.8776 60.0213 46.0709 60.0213 43.8421C60.0213 41.6119 61.8279 39.8053 64.0581 39.8053ZM31.66 41.4748C33.8887 41.4748 35.6954 43.2815 35.6954 45.5103C35.6954 47.7405 33.8887 49.5471 31.66 49.5471C29.4298 49.5471 27.6231 47.7405 27.6231 45.5103C27.6231 43.2815 29.4298 41.4748 31.66 41.4748ZM49.458 64.6096H63.3161C63.9438 64.6096 64.4546 65.1205 64.4546 65.7482V76.7672C64.4546 77.2511 64.1508 77.6651 63.7247 77.8305L57.8489 80.7677C57.6863 80.8497 57.5129 80.8873 57.3421 80.8873L49.458 80.8927V90.152C59.4661 89.8549 68.5372 85.6393 75.1778 78.9986C82.0686 72.1066 86.3487 62.5973 86.3487 52.1416V33.4603C86.3487 24.4726 82.6721 16.3008 76.752 10.378C73.6037 7.23238 69.821 4.7186 65.6174 3.0544L59.2658 28.9154C59.173 29.3119 58.8692 29.6453 58.4485 29.7555L49.458 32.1335V64.6096ZM49.458 78.6155H57.0854L62.1775 76.0695V66.8868H49.458V78.6155ZM88.6259 40.9801V52.1416C88.6259 55.6555 88.1702 59.0672 87.3152 62.3217H91.9892C93.3093 62.3217 94.5111 61.7813 95.3808 60.9142C96.2479 60.0445 96.7883 58.8427 96.7883 57.5227V45.7792C96.7883 44.4591 96.2479 43.2573 95.3808 42.3876C94.5111 41.5205 93.3093 40.9801 91.9892 40.9801H88.6259ZM49.458 29.7838L57.2185 27.7311L63.4666 2.29086C60.3708 1.31223 57.0787 0.78125 53.6696 0.78125H49.458V29.7838ZM64.0581 34.5344C66.6283 34.5344 68.9566 35.5775 70.6396 37.2606C72.3226 38.9436 73.3658 41.2719 73.3658 43.8421C73.3658 46.4123 72.3226 48.7406 70.6396 50.4236C68.9566 52.1066 66.6283 53.1498 64.0581 53.1498C61.4879 53.1498 59.1596 52.1066 57.4766 50.4236C55.7935 48.7406 54.7504 46.4123 54.7504 43.8421C54.7504 41.2719 55.7935 38.9436 57.4766 37.2606C59.1596 35.5775 61.4879 34.5344 64.0581 34.5344ZM69.0292 38.871C67.7575 37.5993 65.9992 36.8116 64.0581 36.8116C62.117 36.8116 60.3587 37.5993 59.087 38.871C57.8153 40.1427 57.0276 41.901 57.0276 43.8421C57.0276 45.7832 57.8153 47.5415 59.087 48.8132C60.3587 50.0849 62.117 50.8726 64.0581 50.8726C65.9992 50.8726 67.7575 50.0849 69.0292 48.8132C70.3009 47.5415 71.0886 45.7832 71.0886 43.8421C71.0886 41.901 70.3009 40.1427 69.0292 38.871ZM47.1808 75.8437C45.2021 75.6501 43.1413 75.1971 41.2526 74.4913C39.3532 73.7789 37.6204 72.8056 36.3057 71.5716C35.85 71.1428 35.8285 70.4222 36.2573 69.9665C36.6862 69.5108 37.4067 69.4893 37.8624 69.9181C38.9499 70.9398 40.4178 71.7584 42.0431 72.3674C43.6642 72.9736 45.4454 73.3729 47.1808 73.5598V27.7916C42.7838 27.8722 39.1166 27.4878 36.1901 26.6368C33.5809 25.8773 31.5336 24.7455 30.0536 23.2412C28.5466 25.4915 26.3703 27.2686 23.4357 28.4798C20.1947 29.8187 16.0262 30.4572 10.8104 30.2677C10.6854 30.2637 10.5644 30.2395 10.4542 30.1978C10.3466 31.2705 10.2915 32.3594 10.2915 33.4603V52.1416C10.2915 62.5986 14.5703 72.1066 21.4624 78.9986C28.103 85.6393 37.1728 89.8549 47.1808 90.152V75.8437ZM8.2442 56.4338C8.09365 55.0223 8.01433 53.5907 8.01433 52.1416V42.2451C7.88663 42.198 7.76699 42.1255 7.65945 42.03C6.81794 41.2772 5.84604 40.9076 4.89295 40.9076C4.34718 40.9076 3.80275 41.0299 3.29328 41.2665C2.76095 41.5138 2.25954 41.8848 1.82668 42.3688C0.764713 43.5544 0.046875 45.4391 0.046875 47.9824C0.046875 50.9291 1.02819 53.4926 2.46386 55.224C3.03114 55.8988 3.63741 56.4137 4.26652 56.7618C4.86338 57.0939 5.4898 57.2753 6.10279 57.2753C6.81391 57.2753 7.53309 57.0213 8.2442 56.4338ZM23.062 43.006C22.5405 43.3514 21.8347 43.2076 21.4892 42.686C21.1438 42.1644 21.2876 41.4587 21.8092 41.1132C24.2947 39.4584 27.1567 38.6304 30.0119 38.6304C32.8685 38.6304 35.729 39.4584 38.2159 41.1132C38.7375 41.4587 38.8813 42.1644 38.5359 42.686C38.1904 43.2076 37.4847 43.3514 36.9631 43.006C34.862 41.6079 32.4383 40.9076 30.0119 40.9076C27.5882 40.9076 25.1631 41.6079 23.062 43.006ZM10.7513 28.0053L10.8911 28.0013C15.7707 28.1787 19.6261 27.5993 22.5727 26.3828C25.5772 25.142 27.6366 23.2211 28.88 20.7557C29.161 20.1965 29.8452 19.972 30.4044 20.2529C30.5819 20.343 30.727 20.4734 30.8319 20.6266C32.0162 22.3634 34.0165 23.6432 36.8219 24.4591C39.54 25.2496 42.9948 25.6044 47.1808 25.5238V0.78125H42.9706C33.9828 0.78125 25.8111 4.45781 19.8882 10.378C15.1914 15.0762 11.9087 21.1912 10.7513 28.0053Z" fill="#212C4A"/>
<path d="M120.993 23.9619V12.4479H116.133V40.105H120.993V23.9619ZM157.675 31.7159C156.942 33.4902 155.939 34.956 154.666 36.1133C153.355 37.3476 151.812 38.312 150.038 39.0062C148.263 39.7005 146.277 40.0477 144.078 40.0477H137.656V35.6503H144.02C145.486 35.6503 146.817 35.4189 148.013 34.956C149.17 34.4931 150.173 33.8374 151.021 32.9888C151.87 32.1402 152.526 31.1373 152.989 29.98C153.452 28.8228 153.683 27.55 153.683 26.1613C153.683 24.8113 153.452 23.5577 152.989 22.4004C152.526 21.2046 151.87 20.221 151.021 19.4495C150.25 18.6395 149.247 17.9838 148.013 17.4823C146.779 17.0195 145.448 16.788 144.021 16.788H137.656V12.3906H144.078C146.123 12.3906 148.09 12.757 149.98 13.49C151.754 14.1457 153.317 15.1294 154.667 16.4408C155.978 17.6366 156.981 19.1024 157.675 20.8382C158.408 22.6126 158.775 24.4256 158.775 26.2771C158.775 28.2829 158.408 30.0957 157.675 31.7159ZM167.512 12.5063H188.109V16.9037H167.512V12.5063ZM167.512 35.6503H188.052V40.0477H167.512V35.6503ZM167.512 23.9619H186.085V28.3014H167.512V23.9619ZM195.458 40.0476H200.26V25.2935L195.458 18.5239V40.0476ZM214.668 12.5063V31.5427L201.071 12.5063H195.863L215.42 40.0478H219.412V12.5063H214.668ZM239.49 17.0195H248.226V12.5064H225.893V17.0195H239.49ZM234.629 21.5327H239.489V40.0478H234.629V21.5327ZM269.114 23.9619V12.4479H264.254V40.105H269.114V23.9619ZM286.008 12.5063H306.606V16.9037H286.008V12.5063ZM286.008 23.9619H290.406V40.0463H286.008V23.9619ZM286.008 23.9619H304.581V28.3014H286.008V23.9619ZM333.859 40.0476H339.066L328.999 12.4483H323.733L329.577 28.9386L333.859 40.0476ZM312.566 40.0476H317.658L323.675 25.3512L321.187 18.7553L312.566 40.0476ZM357.986 23.9619V12.4479H353.126V40.105H357.986V23.9619Z" fill="#212C4A"/>
<path d="M118.579 70.1595V78.382H116.133V60.2722H128.668V62.4413H118.579V67.9903H127.458V70.1595H118.579ZM138.319 60.2722V78.382H135.872V60.2722H138.319ZM158.714 74.9013V60.2722H161.085V78.382H158.335L149.129 63.7529H149.079V78.382H146.708V60.2722H149.608L158.663 74.9013H158.714ZM169.247 78.382V60.2722H176.586C181.303 60.2722 184.204 63.8538 184.204 69.0749C184.204 73.1357 182.438 78.382 176.486 78.382H169.247ZM171.693 62.3657V76.2886H176.435C179.613 76.2886 181.681 73.7915 181.681 69.2262C181.681 64.6609 179.588 62.3657 176.259 62.3657H171.693ZM216.948 69.3271C216.948 65.0645 214.577 61.9621 210.642 61.9621C206.707 61.9621 204.336 65.0645 204.336 69.3271C204.336 73.5897 206.707 76.6921 210.642 76.6921C214.577 76.6921 216.948 73.5897 216.948 69.3271ZM219.47 69.3271C219.47 73.2366 217.402 78.8613 210.642 78.8613C203.882 78.8613 201.814 73.2366 201.814 69.3271C201.814 65.4176 203.882 59.793 210.642 59.793C217.402 59.793 219.47 65.4176 219.47 69.3271ZM229.322 70.6135V78.382H226.875V60.2722H235.249C238.225 60.2722 241.202 61.3063 241.202 65.1402C241.202 67.8138 239.84 68.7974 238.679 69.4785C239.714 69.9072 240.748 70.3612 240.849 72.8835L241 76.1625C241.025 77.1714 241.151 77.5497 241.908 77.9785V78.382H238.906C238.553 77.2722 238.478 74.523 238.478 73.842C238.478 72.3538 238.175 70.6135 235.249 70.6135H229.322ZM229.322 62.3657V68.52H234.997C236.788 68.52 238.679 68.066 238.679 65.3924C238.679 62.5927 236.636 62.3657 235.426 62.3657H229.322ZM251.81 60.2722V78.382H249.364V60.2722H251.81ZM268.094 70.79V68.6966H276.039V78.382H274.45L273.87 76.0363C272.634 77.7515 270.364 78.8613 267.892 78.8613C264.79 78.8613 263.277 77.7263 262.343 76.8182C259.569 74.1951 259.493 71.0927 259.493 69.1758C259.493 64.7618 262.167 59.793 268.069 59.793C271.449 59.793 275.207 61.7099 275.737 65.7707H273.366C272.584 62.6179 269.935 61.9621 267.943 61.9621C264.689 61.9621 262.015 64.56 262.015 69.3019C262.015 72.9844 263.226 76.7678 268.044 76.7678C268.952 76.7678 270.415 76.6669 271.751 75.6076C273.34 74.3464 273.744 72.7322 273.744 70.79H268.094ZM286.85 60.2722V78.382H284.403V60.2722H286.85ZM307.245 74.9013V60.2722H309.616V78.382H306.866L297.66 63.7529H297.61V78.382H295.239V60.2722H298.139L307.194 74.9013H307.245Z" fill="#212C4A"/>
</svg>
